<svg width="26" height="26" viewBox="0 0 26 26" fill="none" xmlns="http://www.w3.org/2000/svg">
<path opacity="0.4" d="M17.5391 2.16675H8.46079C4.51746 2.16675 2.16663 4.51758 2.16663 8.46092V17.5284C2.16663 21.4826 4.51746 23.8334 8.46079 23.8334H17.5283C21.4716 23.8334 23.8225 21.4826 23.8225 17.5392V8.46092C23.8333 4.51758 21.4825 2.16675 17.5391 2.16675Z" fill="#292D32"/>
<path d="M14.365 17.6366C14.1592 17.6366 13.9534 17.5608 13.7909 17.3983L9.9667 13.5741C9.65254 13.2599 9.65254 12.7399 9.9667 12.4258L13.7909 8.60159C14.105 8.28743 14.625 8.28743 14.9392 8.60159C15.2534 8.91576 15.2534 9.43576 14.9392 9.74993L11.6892 12.9999L14.9392 16.2499C15.2534 16.5641 15.2534 17.0841 14.9392 17.3983C14.7875 17.5608 14.5817 17.6366 14.365 17.6366Z" fill="#292D32"/>
</svg>
