<svg width="20" height="20" viewBox="0 0 20 20" fill="none" xmlns="http://www.w3.org/2000/svg" xmlns:xlink="http://www.w3.org/1999/xlink">
<rect width="20" height="20"/>
<path d="M9.99866 2.48145C10.1051 2.48145 10.4286 2.57225 10.7701 3.25879L12.2379 6.19434C12.4054 6.53311 12.6808 6.81793 12.9606 7.02441C13.2426 7.23248 13.597 7.41174 13.9684 7.47363L16.6266 7.91406V7.91504C17.346 8.03495 17.5338 8.30941 17.5699 8.4209C17.6051 8.53034 17.6149 8.86086 17.0963 9.37598L17.0944 9.37793L15.028 11.4453C14.7408 11.7326 14.5521 12.112 14.4489 12.4727C14.3584 12.7887 14.3159 13.1502 14.3658 13.499L14.3932 13.6475L14.3942 13.6523L14.986 16.2109C15.2045 17.1597 14.9673 17.4334 14.9215 17.4668C14.8742 17.5012 14.5385 17.6423 13.6989 17.1465L11.2076 15.6719C10.8388 15.4533 10.3999 15.3672 10.0035 15.3672C9.60643 15.3672 9.16761 15.4536 8.79749 15.6689L8.7926 15.6719L6.30139 17.1465H6.30042C5.46787 17.6406 5.131 17.4999 5.08167 17.4639C5.03872 17.4323 4.85284 17.2165 4.95276 16.5332L5.01428 16.2109L5.60608 13.6523L5.60706 13.6475C5.69515 13.2543 5.65477 12.8338 5.55139 12.4727C5.44812 12.112 5.25942 11.7326 4.97229 11.4453L2.90491 9.37793C2.38995 8.86281 2.39772 8.53112 2.43323 8.41992C2.46856 8.30939 2.65335 8.03406 3.37268 7.91406L6.03088 7.47363L6.03381 7.47266C6.40166 7.41019 6.75329 7.23067 7.03284 7.02344C7.31089 6.81727 7.5861 6.53233 7.75354 6.19336L7.75452 6.19434L9.22034 3.25977C9.56542 2.57419 9.89055 2.48164 9.99866 2.48145Z" stroke="#292D32" stroke-width="1.5" stroke-linecap="round" stroke-linejoin="round"/>
</svg>
