<svg width="43" height="42" viewBox="0 0 43 42" fill="none" xmlns="http://www.w3.org/2000/svg">
<path opacity="0.4" d="M21.5 9.27497V37.3275C21.8046 37.3275 22.1271 37.2749 22.3779 37.1349L22.4496 37.1C25.8896 35.2625 31.8916 33.3375 35.7795 32.83L36.2992 32.7599C38.0192 32.5499 39.4167 30.975 39.4167 29.295V8.15495C39.4167 6.07245 37.6788 4.49746 35.5467 4.67246C31.7842 4.96996 26.0867 6.82501 22.8976 8.76751L22.4496 9.02995C22.1809 9.18745 21.8404 9.27497 21.5 9.27497Z" fill="#292D32"/>
<path d="M3.58337 8.17241V29.2949C3.58337 30.9749 4.98086 32.5499 6.70086 32.7599L7.29214 32.83C11.198 33.3375 17.218 35.2799 20.658 37.1349C20.8909 37.2749 21.1775 37.3275 21.5 37.3275V9.27492C21.1596 9.27492 20.8192 9.1874 20.5504 9.02989L20.2459 8.83742C17.0567 6.87742 11.3413 5.00493 7.57876 4.68993H7.47126C5.33918 4.51493 3.58337 6.07241 3.58337 8.17241Z" fill="#292D32"/>
<path d="M34.0417 4.86499V12.3725C34.0417 13.0725 33.2533 13.4924 32.6441 13.1074L30.4583 11.6899L28.2726 13.1074C27.6813 13.4924 26.875 13.0725 26.875 12.3725V6.85991C29.2221 5.94991 31.8379 5.21499 34.0417 4.86499Z" fill="#292D32"/>
</svg>
