<svg width="149" height="139" viewBox="0 0 149 139" fill="none" xmlns="http://www.w3.org/2000/svg">
<rect width="148.108" height="139" rx="16" fill="#D3E4DE"/>
<path opacity="0.4" d="M73 45.6665V99.0999C73.5667 99.0999 74.1666 98.9998 74.6333 98.7331L74.7668 98.6666C81.1668 95.1666 92.3332 91.4999 99.5666 90.5332L100.533 90.3998C103.733 89.9998 106.333 86.9998 106.333 83.7998V43.5331C106.333 39.5664 103.1 36.5665 99.1334 36.8998C92.1334 37.4665 81.5334 40.9999 75.6001 44.6999L74.7668 45.1998C74.2668 45.4998 73.6333 45.6665 73 45.6665Z" fill="#292D32"/>
<path d="M39.6667 43.5666V83.7999C39.6667 86.9999 42.2667 89.9999 45.4667 90.3999L46.5668 90.5333C53.8334 91.5 65.0335 95.1999 71.4335 98.7332C71.8668 98.9999 72.4001 99.1 73.0001 99.1V45.6666C72.3667 45.6666 71.7333 45.4999 71.2333 45.1999L70.6667 44.8333C64.7334 41.0999 54.1 37.5333 47.1 36.9333H46.9C42.9334 36.5999 39.6667 39.5666 39.6667 43.5666Z" fill="#292D32"/>
<path d="M96.3333 37.2666V51.5665C96.3333 52.8999 94.8666 53.6998 93.7332 52.9665L89.6667 50.2665L85.6001 52.9665C84.5001 53.6998 83 52.8999 83 51.5665V41.0664C87.3667 39.3331 92.2333 37.9333 96.3333 37.2666Z" fill="#292D32"/>
<path d="M47.207 124V110.263H52.185C53.9836 110.263 55.3168 110.573 56.1845 111.194C57.0585 111.808 57.4955 112.698 57.4955 113.863C57.4955 114.547 57.3213 115.143 56.973 115.649C56.6246 116.15 56.004 116.587 55.111 116.96C55.6873 117.106 56.1528 117.302 56.5075 117.549C56.8621 117.796 57.1345 118.072 57.3245 118.376C57.5145 118.674 57.6443 118.987 57.714 119.316C57.7836 119.639 57.8185 119.959 57.8185 120.276C57.8185 121.543 57.3878 122.48 56.5265 123.088C55.6651 123.696 54.294 124 52.413 124H47.207ZM49.9715 121.853H52.47C53.306 121.853 53.9361 121.685 54.3605 121.349C54.7911 121.014 55.0065 120.564 55.0065 120C55.0065 119.595 54.902 119.256 54.693 118.984C54.484 118.705 54.199 118.496 53.838 118.357C53.4833 118.218 53.078 118.148 52.622 118.148H49.9715V121.853ZM49.9715 115.944H52.622C52.907 115.944 53.1793 115.912 53.439 115.849C53.705 115.779 53.9393 115.675 54.142 115.535C54.351 115.396 54.5156 115.219 54.636 115.003C54.7563 114.782 54.8165 114.522 54.8165 114.224C54.8165 113.629 54.5916 113.179 54.142 112.875C53.6986 112.565 53.1286 112.41 52.432 112.41H49.9715V115.944ZM64.2767 124.19C63.314 124.19 62.4749 123.984 61.7592 123.572C61.0499 123.161 60.4989 122.578 60.1062 121.824C59.7199 121.071 59.5267 120.178 59.5267 119.145C59.5267 118.113 59.7199 117.211 60.1062 116.438C60.4989 115.665 61.0499 115.064 61.7592 114.633C62.4749 114.202 63.3172 113.987 64.2862 113.987C65.2552 113.987 66.0944 114.199 66.8037 114.623C67.513 115.041 68.0609 115.637 68.4472 116.409C68.8335 117.182 69.0267 118.094 69.0267 119.145C69.0267 120.133 68.8367 121.007 68.4567 121.767C68.083 122.521 67.5415 123.113 66.8322 123.544C66.1292 123.975 65.2774 124.19 64.2767 124.19ZM64.2862 122.128C64.7739 122.128 65.1665 121.986 65.4642 121.701C65.7619 121.416 65.9772 121.042 66.1102 120.58C66.2432 120.111 66.3097 119.601 66.3097 119.05C66.3097 118.531 66.2495 118.04 66.1292 117.578C66.0089 117.116 65.7999 116.742 65.5022 116.457C65.2045 116.172 64.7992 116.029 64.2862 116.029C63.7985 116.029 63.4027 116.166 63.0987 116.438C62.801 116.704 62.5825 117.068 62.4432 117.53C62.3039 117.986 62.2342 118.493 62.2342 119.05C62.2342 119.563 62.2975 120.057 62.4242 120.532C62.5509 121.001 62.763 121.384 63.0607 121.682C63.3584 121.98 63.7669 122.128 64.2862 122.128ZM75.2054 124.19C74.2427 124.19 73.4036 123.984 72.6879 123.572C71.9786 123.161 71.4276 122.578 71.0349 121.824C70.6486 121.071 70.4554 120.178 70.4554 119.145C70.4554 118.113 70.6486 117.211 71.0349 116.438C71.4276 115.665 71.9786 115.064 72.6879 114.633C73.4036 114.202 74.2459 113.987 75.2149 113.987C76.1839 113.987 77.0231 114.199 77.7324 114.623C78.4417 115.041 78.9896 115.637 79.3759 116.409C79.7622 117.182 79.9554 118.094 79.9554 119.145C79.9554 120.133 79.7654 121.007 79.3854 121.767C79.0117 122.521 78.4702 123.113 77.7609 123.544C77.0579 123.975 76.2061 124.19 75.2054 124.19ZM75.2149 122.128C75.7026 122.128 76.0952 121.986 76.3929 121.701C76.6906 121.416 76.9059 121.042 77.0389 120.58C77.1719 120.111 77.2384 119.601 77.2384 119.05C77.2384 118.531 77.1782 118.04 77.0579 117.578C76.9376 117.116 76.7286 116.742 76.4309 116.457C76.1332 116.172 75.7279 116.029 75.2149 116.029C74.7272 116.029 74.3314 116.166 74.0274 116.438C73.7297 116.704 73.5112 117.068 73.3719 117.53C73.2326 117.986 73.1629 118.493 73.1629 119.05C73.1629 119.563 73.2262 120.057 73.3529 120.532C73.4796 121.001 73.6917 121.384 73.9894 121.682C74.2871 121.98 74.6956 122.128 75.2149 122.128ZM81.8496 124V109.883H84.6236V118.252L88.2336 114.177H91.2166L87.6446 118.091L91.3401 124H88.5756L85.9251 119.763L84.6236 121.15V124H81.8496ZM96.452 124.19C95.768 124.19 95.1093 124.079 94.476 123.857C93.849 123.629 93.3138 123.275 92.8705 122.793C92.4335 122.306 92.158 121.676 92.044 120.903H94.438C94.5267 121.251 94.6787 121.527 94.894 121.729C95.1157 121.932 95.3658 122.078 95.6445 122.166C95.9232 122.249 96.1892 122.29 96.4425 122.29C96.9745 122.29 97.402 122.208 97.725 122.043C98.0543 121.872 98.219 121.612 98.219 121.264C98.219 120.998 98.1208 120.786 97.9245 120.627C97.7345 120.469 97.4178 120.349 96.9745 120.266L95.2455 119.905C94.3778 119.722 93.678 119.411 93.146 118.974C92.6203 118.531 92.3543 117.904 92.348 117.093C92.3417 116.504 92.4937 115.976 92.804 115.507C93.1207 115.038 93.5862 114.668 94.2005 114.395C94.8212 114.123 95.578 113.987 96.471 113.987C97.6807 113.987 98.6465 114.253 99.3685 114.785C100.097 115.317 100.467 116.067 100.48 117.036H98.162C98.0923 116.656 97.9023 116.365 97.592 116.162C97.288 115.953 96.9017 115.849 96.433 115.849C95.958 115.849 95.5653 115.934 95.255 116.105C94.9447 116.276 94.7895 116.536 94.7895 116.884C94.7895 117.144 94.9162 117.35 95.1695 117.502C95.4228 117.648 95.8155 117.774 96.3475 117.882L97.9435 118.243C98.4945 118.376 98.941 118.56 99.283 118.794C99.6313 119.022 99.9005 119.272 100.091 119.544C100.281 119.817 100.41 120.092 100.48 120.371C100.556 120.643 100.594 120.89 100.594 121.112C100.594 121.764 100.42 122.322 100.072 122.784C99.7232 123.24 99.2387 123.588 98.618 123.829C97.9973 124.07 97.2753 124.19 96.452 124.19Z" fill="#1C2922"/>
</svg>
