<svg width="75" height="75" viewBox="0 0 75 75" fill="none" xmlns="http://www.w3.org/2000/svg">
<path d="M53.125 28.125C53.125 40.2187 42.625 50 29.6875 50L26.7813 53.5L25.0625 55.5626C23.5938 57.3126 20.7812 56.9375 19.8125 54.8437L15.625 45.6249C9.9375 41.6249 6.25 35.2812 6.25 28.125C6.25 16.0313 16.75 6.25 29.6875 6.25C39.125 6.25 47.2813 11.4688 50.9375 18.9688C52.3438 21.75 53.125 24.8438 53.125 28.125Z" stroke="#292D32" stroke-width="1.5" stroke-linecap="round" stroke-linejoin="round"/>
<path d="M68.75 40.1874C68.75 47.3437 65.0625 53.6875 59.375 57.6875L55.1875 66.9061C54.2188 68.9999 51.4062 69.4063 49.9375 67.625L45.3125 62.0624C37.75 62.0624 31 58.7187 26.7813 53.5L29.6875 50C42.625 50 53.125 40.2187 53.125 28.125C53.125 24.8437 52.3438 21.75 50.9375 18.9688C61.1563 21.3125 68.75 29.9374 68.75 40.1874Z" stroke="#292D32" stroke-width="1.5" stroke-linecap="round" stroke-linejoin="round"/>
<path d="M21.875 28.125H37.5" stroke="#292D32" stroke-width="1.5" stroke-linecap="round" stroke-linejoin="round"/>
</svg>
