<svg width="149" height="139" viewBox="0 0 149 139" fill="none" xmlns="http://www.w3.org/2000/svg">
<rect width="148.108" height="139" rx="16" fill="#D3E4DE"/>
<path d="M28.0024 126V112.263H30.7479L37.0179 121.354V112.263H39.7919V126H37.2934L30.7669 116.547V126H28.0024ZM46.7659 126.19C45.7906 126.19 44.9324 125.987 44.1914 125.582C43.4568 125.17 42.8836 124.591 42.4719 123.843C42.0603 123.096 41.8544 122.216 41.8544 121.203C41.8544 120.221 42.0413 119.337 42.4149 118.552C42.7949 117.76 43.3396 117.136 44.0489 116.68C44.7583 116.218 45.6164 115.987 46.6234 115.987C47.6241 115.987 48.4633 116.199 49.1409 116.623C49.8186 117.041 50.3316 117.627 50.6799 118.381C51.0283 119.128 51.2024 119.993 51.2024 120.974V121.725H44.5999C44.5999 122.225 44.6823 122.662 44.8469 123.036C45.0116 123.403 45.2491 123.688 45.5594 123.891C45.8761 124.087 46.2561 124.185 46.6994 124.185C47.1744 124.185 47.5893 124.084 47.9439 123.881C48.2986 123.679 48.5488 123.346 48.6944 122.884H51.1929C51.0789 123.581 50.8003 124.176 50.3569 124.67C49.9136 125.164 49.3753 125.541 48.7419 125.8C48.1086 126.06 47.4499 126.19 46.7659 126.19ZM44.5999 120.072H48.6089C48.6089 119.679 48.5329 119.318 48.3809 118.989C48.2353 118.66 48.0136 118.4 47.7159 118.21C47.4246 118.02 47.0573 117.925 46.6139 117.925C46.1896 117.925 45.8254 118.029 45.5214 118.238C45.2238 118.441 44.9926 118.707 44.8279 119.036C44.6696 119.366 44.5936 119.711 44.5999 120.072ZM55.2209 126L52.0384 116.177H54.4894L56.3704 122.266H56.4369L58.2419 116.177H60.2274L62.0514 122.266H62.1274L63.9514 116.177H66.4594L63.2294 126H61.0159L59.1919 120.053L57.3584 126H55.2209ZM71.5697 126.19C70.8857 126.19 70.227 126.079 69.5937 125.857C68.9667 125.629 68.4315 125.275 67.9882 124.793C67.5512 124.306 67.2757 123.676 67.1617 122.903H69.5557C69.6443 123.251 69.7963 123.527 70.0117 123.729C70.2333 123.932 70.4835 124.078 70.7622 124.166C71.0408 124.249 71.3068 124.29 71.5602 124.29C72.0922 124.29 72.5197 124.208 72.8427 124.043C73.172 123.872 73.3367 123.612 73.3367 123.264C73.3367 122.998 73.2385 122.786 73.0422 122.627C72.8522 122.469 72.5355 122.349 72.0922 122.266L70.3632 121.905C69.4955 121.722 68.7957 121.411 68.2637 120.974C67.738 120.531 67.472 119.904 67.4657 119.093C67.4593 118.504 67.6113 117.976 67.9217 117.507C68.2383 117.038 68.7038 116.668 69.3182 116.395C69.9388 116.123 70.6957 115.987 71.5887 115.987C72.7983 115.987 73.7642 116.253 74.4862 116.785C75.2145 117.317 75.585 118.067 75.5977 119.036H73.2797C73.21 118.656 73.02 118.365 72.7097 118.162C72.4057 117.953 72.0193 117.849 71.5507 117.849C71.0757 117.849 70.683 117.934 70.3727 118.105C70.0623 118.276 69.9072 118.536 69.9072 118.884C69.9072 119.144 70.0338 119.35 70.2872 119.502C70.5405 119.648 70.9332 119.774 71.4652 119.882L73.0612 120.243C73.6122 120.376 74.0587 120.56 74.4007 120.794C74.749 121.022 75.0182 121.272 75.2082 121.544C75.3982 121.817 75.528 122.092 75.5977 122.371C75.6737 122.643 75.7117 122.89 75.7117 123.112C75.7117 123.764 75.5375 124.322 75.1892 124.784C74.8408 125.24 74.3563 125.588 73.7357 125.829C73.115 126.07 72.393 126.19 71.5697 126.19ZM84.9285 126.171C84.2065 126.171 83.6333 126.086 83.209 125.914C82.7846 125.743 82.4711 125.519 82.2685 125.24C82.0658 124.955 81.936 124.641 81.879 124.299C81.822 123.951 81.7935 123.6 81.7935 123.245V111.883H84.5105V122.903C84.5105 123.264 84.5865 123.558 84.7385 123.786C84.8968 124.008 85.1913 124.144 85.622 124.195L86.0875 124.223V125.933C85.8975 125.997 85.7043 126.051 85.508 126.095C85.3116 126.146 85.1185 126.171 84.9285 126.171ZM91.9837 126.19C91.0084 126.19 90.1502 125.987 89.4092 125.582C88.6745 125.17 88.1014 124.591 87.6897 123.843C87.278 123.096 87.0722 122.216 87.0722 121.203C87.0722 120.221 87.259 119.337 87.6327 118.552C88.0127 117.76 88.5574 117.136 89.2667 116.68C89.976 116.218 90.8342 115.987 91.8412 115.987C92.8419 115.987 93.681 116.199 94.3587 116.623C95.0364 117.041 95.5494 117.627 95.8977 118.381C96.246 119.128 96.4202 119.993 96.4202 120.974V121.725H89.8177C89.8177 122.225 89.9 122.662 90.0647 123.036C90.2294 123.403 90.4669 123.688 90.7772 123.891C91.0939 124.087 91.4739 124.185 91.9172 124.185C92.3922 124.185 92.807 124.084 93.1617 123.881C93.5164 123.679 93.7665 123.346 93.9122 122.884H96.4107C96.2967 123.581 96.018 124.176 95.5747 124.67C95.1314 125.164 94.593 125.541 93.9597 125.8C93.3264 126.06 92.6677 126.19 91.9837 126.19ZM89.8177 120.072H93.8267C93.8267 119.679 93.7507 119.318 93.5987 118.989C93.453 118.66 93.2314 118.4 92.9337 118.21C92.6424 118.02 92.275 117.925 91.8317 117.925C91.4074 117.925 91.0432 118.029 90.7392 118.238C90.4415 118.441 90.2104 118.707 90.0457 119.036C89.8874 119.366 89.8114 119.711 89.8177 120.072ZM102.34 126.105C101.472 126.105 100.801 125.994 100.326 125.772C99.8574 125.55 99.5312 125.24 99.3475 124.841C99.1702 124.442 99.0815 123.98 99.0815 123.454V118.105H97.4855V116.177H99.167L99.87 113.213H101.846V116.167H104.031V118.105H101.846L101.865 123.34C101.865 123.581 101.894 123.761 101.951 123.881C102.014 123.995 102.109 124.071 102.236 124.109C102.369 124.141 102.536 124.157 102.739 124.157H104.06V125.867C103.927 125.924 103.727 125.978 103.461 126.029C103.195 126.079 102.821 126.105 102.34 126.105ZM109.595 126.105C108.727 126.105 108.056 125.994 107.581 125.772C107.112 125.55 106.786 125.24 106.602 124.841C106.425 124.442 106.336 123.98 106.336 123.454V118.105H104.74V116.177H106.422L107.125 113.213H109.101V116.167H111.286V118.105H109.101L109.12 123.34C109.12 123.581 109.148 123.761 109.205 123.881C109.269 123.995 109.364 124.071 109.49 124.109C109.623 124.141 109.791 124.157 109.994 124.157H111.314V125.867C111.181 125.924 110.982 125.978 110.716 126.029C110.45 126.079 110.076 126.105 109.595 126.105ZM117.459 126.19C116.484 126.19 115.626 125.987 114.885 125.582C114.15 125.17 113.577 124.591 113.165 123.843C112.754 123.096 112.548 122.216 112.548 121.203C112.548 120.221 112.735 119.337 113.108 118.552C113.488 117.76 114.033 117.136 114.742 116.68C115.452 116.218 116.31 115.987 117.317 115.987C118.317 115.987 119.157 116.199 119.834 116.623C120.512 117.041 121.025 117.627 121.373 118.381C121.722 119.128 121.896 119.993 121.896 120.974V121.725H115.293C115.293 122.225 115.376 122.662 115.54 123.036C115.705 123.403 115.942 123.688 116.253 123.891C116.569 124.087 116.949 124.185 117.393 124.185C117.868 124.185 118.283 124.084 118.637 123.881C118.992 123.679 119.242 123.346 119.388 122.884H121.886C121.772 123.581 121.494 124.176 121.05 124.67C120.607 125.164 120.069 125.541 119.435 125.8C118.802 126.06 118.143 126.19 117.459 126.19ZM115.293 120.072H119.302C119.302 119.679 119.226 119.318 119.074 118.989C118.929 118.66 118.707 118.4 118.409 118.21C118.118 118.02 117.751 117.925 117.307 117.925C116.883 117.925 116.519 118.029 116.215 118.238C115.917 118.441 115.686 118.707 115.521 119.036C115.363 119.366 115.287 119.711 115.293 120.072ZM123.894 126V116.177H126.564V118.504C126.722 118.004 126.944 117.567 127.229 117.193C127.52 116.813 127.871 116.519 128.283 116.31C128.695 116.095 129.16 115.987 129.68 115.987C129.768 115.987 129.851 115.993 129.927 116.006C130.009 116.012 130.069 116.025 130.107 116.044V118.685C130.05 118.66 129.98 118.644 129.898 118.637C129.822 118.631 129.752 118.625 129.689 118.618C129.144 118.574 128.679 118.59 128.293 118.666C127.906 118.742 127.593 118.872 127.352 119.055C127.111 119.239 126.937 119.464 126.83 119.73C126.722 119.996 126.668 120.294 126.668 120.623V126H123.894Z" fill="#1C2922"/>
<path opacity="0.4" d="M107 51.3332V84.6665C107 94.6665 102 101.333 90.3333 101.333H63.6667C52 101.333 47 94.6665 47 84.6665V51.3332C47 41.3332 52 34.6665 63.6667 34.6665H90.3333C102 34.6665 107 41.3332 107 51.3332Z" fill="#292D32"/>
<path d="M98.6666 58.8333H91.9999C86.9333 58.8333 82.8333 54.7333 82.8333 49.6667V43C82.8333 41.6333 83.9666 40.5 85.3333 40.5C86.6999 40.5 87.8333 41.6333 87.8333 43V49.6667C87.8333 51.9667 89.6999 53.8333 91.9999 53.8333H98.6666C100.033 53.8333 101.167 54.9667 101.167 56.3333C101.167 57.7 100.033 58.8333 98.6666 58.8333Z" fill="#292D32"/>
<path d="M77.0001 73.8335H63.6667C62.3001 73.8335 61.1667 72.7002 61.1667 71.3335C61.1667 69.9668 62.3001 68.8335 63.6667 68.8335H77.0001C78.3667 68.8335 79.5001 69.9668 79.5001 71.3335C79.5001 72.7002 78.3667 73.8335 77.0001 73.8335Z" fill="#292D32"/>
<path d="M90.3334 87.1665H63.6667C62.3001 87.1665 61.1667 86.0332 61.1667 84.6665C61.1667 83.2998 62.3001 82.1665 63.6667 82.1665H90.3334C91.7001 82.1665 92.8334 83.2998 92.8334 84.6665C92.8334 86.0332 91.7001 87.1665 90.3334 87.1665Z" fill="#292D32"/>
</svg>
