<svg width="20" height="20" viewBox="0 0 20 20" fill="none" xmlns="http://www.w3.org/2000/svg" xmlns:xlink="http://www.w3.org/1999/xlink">
<rect width="20" height="20"/>
<path d="M10.4489 7.08789V7.08691C10.7956 7.78485 11.3173 8.29743 11.7731 8.63379C12.2347 8.97442 12.8778 9.31931 13.6393 9.44629H13.6412L14.1178 9.52539L13.6139 10.0303C13.0268 10.6174 12.6964 11.3276 12.526 11.9229C12.3558 12.5174 12.2637 13.2827 12.4401 14.0771L12.2252 13.9502C11.473 13.505 10.6593 13.3672 10.0035 13.3672C9.3447 13.3672 8.53765 13.5054 7.79163 13.9395C7.78569 13.9429 7.77996 13.9467 7.77405 13.9502L7.5592 14.0771C7.7356 13.2827 7.64441 12.5175 7.47424 11.9229C7.30384 11.3276 6.97347 10.6174 6.38635 10.0303L5.88147 9.52539L6.35901 9.44629L6.36877 9.44434C7.12897 9.31523 7.76857 8.96774 8.22424 8.62988C8.67965 8.29222 9.20607 7.77441 9.55237 7.06738L9.99573 6.18164L10.4489 7.08789Z" stroke="#E42F45" stroke-width="5.5" stroke-linecap="round" stroke-linejoin="round"/>
</svg>
