<svg width="24" height="24" viewBox="0 0 24 24" fill="none" xmlns="http://www.w3.org/2000/svg">
<path opacity="0.4" d="M16.19 2.33002H7.82001C4.18001 2.33002 2.01001 4.50002 2.01001 8.14002V16.51C2.01001 20.15 4.18001 22.32 7.82001 22.32H16.19C19.83 22.32 22 20.15 22 16.51V8.15002C22 4.51002 19.83 2.33002 16.19 2.33002Z" fill="#292D32"/>
<path d="M16.4 8.21002L12.64 6.18002C12.24 5.97002 11.77 5.97002 11.37 6.18002L7.60999 8.21002C7.33999 8.36002 7.17001 8.65002 7.17001 8.98002C7.17001 9.31002 7.33999 9.60002 7.60999 9.75002L11.37 11.78C11.57 11.89 11.79 11.94 12.01 11.94C12.23 11.94 12.45 11.89 12.65 11.78L16.41 9.75002C16.68 9.60002 16.85 9.31002 16.85 8.98002C16.84 8.65002 16.67 8.36002 16.4 8.21002Z" fill="#292D32"/>
<path d="M10.74 12.47L7.23999 10.72C6.96999 10.59 6.65999 10.6 6.39999 10.76C6.13999 10.92 5.98999 11.19 5.98999 11.49V14.8C5.98999 15.37 6.31001 15.89 6.82001 16.14L10.32 17.89C10.44 17.95 10.57 17.98 10.71 17.98C10.87 17.98 11.02 17.94 11.16 17.85C11.42 17.69 11.57 17.42 11.57 17.12V13.81C11.57 13.24 11.26 12.73 10.74 12.47Z" fill="#292D32"/>
<path d="M17.59 10.76C17.33 10.6 17.02 10.59 16.75 10.72L13.25 12.47C12.74 12.73 12.42 13.24 12.42 13.81V17.12C12.42 17.42 12.57 17.69 12.83 17.85C12.97 17.94 13.12 17.98 13.28 17.98C13.41 17.98 13.54 17.95 13.67 17.89L17.17 16.14C17.68 15.88 18 15.37 18 14.8V11.49C18 11.19 17.85 10.92 17.59 10.76Z" fill="#292D32"/>
</svg>
