<svg width="25" height="12" viewBox="0 0 25 12" fill="none" xmlns="http://www.w3.org/2000/svg">
<path d="M2.226 11V2.8775H0.290996V1.64C0.910996 1.64 1.411 1.5825 1.791 1.4675C2.176 1.3475 2.4635 1.1775 2.6535 0.957499C2.8435 0.732499 2.956 0.464999 2.991 0.154999H4.446V11H2.226ZM10.907 11.165C9.59201 11.165 8.56451 10.6875 7.82451 9.7325C7.08951 8.7775 6.72201 7.4025 6.72201 5.6075C6.72201 4.4075 6.89201 3.39 7.23201 2.555C7.57201 1.72 8.05451 1.0875 8.67951 0.657499C9.30451 0.222499 10.047 0.0049994 10.907 0.0049994C12.197 0.0049994 13.2145 0.4875 13.9595 1.4525C14.7045 2.4125 15.077 3.795 15.077 5.6C15.077 7.395 14.7095 8.7725 13.9745 9.7325C13.2395 10.6875 12.217 11.165 10.907 11.165ZM10.907 9.3725C11.552 9.3725 12.0245 9.085 12.3245 8.51C12.6245 7.93 12.7745 6.9625 12.7745 5.6075C12.7745 4.2225 12.622 3.23 12.317 2.63C12.012 2.03 11.5395 1.73 10.8995 1.73C10.2595 1.73 9.78201 2.0325 9.46701 2.6375C9.15701 3.2425 9.00201 4.2325 9.00201 5.6075C9.00201 6.9575 9.15701 7.9225 9.46701 8.5025C9.77701 9.0825 10.257 9.3725 10.907 9.3725ZM20.531 11.165C19.216 11.165 18.1885 10.6875 17.4485 9.7325C16.7135 8.7775 16.346 7.4025 16.346 5.6075C16.346 4.4075 16.516 3.39 16.856 2.555C17.196 1.72 17.6785 1.0875 18.3035 0.657499C18.9285 0.222499 19.671 0.0049994 20.531 0.0049994C21.821 0.0049994 22.8385 0.4875 23.5835 1.4525C24.3285 2.4125 24.701 3.795 24.701 5.6C24.701 7.395 24.3335 8.7725 23.5985 9.7325C22.8635 10.6875 21.841 11.165 20.531 11.165ZM20.531 9.3725C21.176 9.3725 21.6485 9.085 21.9485 8.51C22.2485 7.93 22.3985 6.9625 22.3985 5.6075C22.3985 4.2225 22.246 3.23 21.941 2.63C21.636 2.03 21.1635 1.73 20.5235 1.73C19.8835 1.73 19.406 2.0325 19.091 2.6375C18.781 3.2425 18.626 4.2325 18.626 5.6075C18.626 6.9575 18.781 7.9225 19.091 8.5025C19.401 9.0825 19.881 9.3725 20.531 9.3725Z" fill="#E42F45"/>
</svg>
