<svg width="149" height="139" viewBox="0 0 149 139" fill="none" xmlns="http://www.w3.org/2000/svg">
<rect width="148.108" height="139" rx="16" fill="#D3E4DE"/>
<path d="M44.111 125L39.361 111.263H42.0115L45.688 121.779L49.3455 111.263H52.0055L47.2555 125H44.111ZM53.5754 125V115.177H56.2259V125H53.5754ZM53.5469 113.771V111.272H56.2449V113.771H53.5469ZM62.3268 125.19C61.0095 125.19 59.9835 124.737 59.2488 123.831C58.5141 122.919 58.1468 121.653 58.1468 120.031C58.1468 119.005 58.2956 118.116 58.5933 117.362C58.891 116.608 59.3311 116.026 59.9138 115.614C60.4965 115.196 61.209 114.987 62.0513 114.987C62.406 114.987 62.7353 115.028 63.0393 115.11C63.3496 115.186 63.6315 115.294 63.8848 115.433C64.1381 115.573 64.3598 115.734 64.5498 115.918C64.7398 116.102 64.895 116.298 65.0153 116.507V110.883H67.7988V125H65.7848L65.4713 122.986C65.3763 123.258 65.2496 123.524 65.0913 123.784C64.9393 124.044 64.7398 124.281 64.4928 124.496C64.2458 124.705 63.9418 124.873 63.5808 125C63.2261 125.127 62.8081 125.19 62.3268 125.19ZM62.9348 123.195C63.6315 123.195 64.1508 122.951 64.4928 122.463C64.8411 121.976 65.0153 121.152 65.0153 119.993C65.009 119.322 64.9298 118.765 64.7778 118.321C64.6258 117.878 64.3978 117.549 64.0938 117.333C63.7961 117.112 63.4161 117.001 62.9538 117.001C62.3521 117.001 61.8518 117.232 61.4528 117.694C61.0538 118.15 60.8543 118.917 60.8543 119.993C60.8543 121.089 61.0411 121.897 61.4148 122.416C61.7885 122.935 62.2951 123.195 62.9348 123.195ZM74.6844 125.19C73.709 125.19 72.8509 124.987 72.1099 124.582C71.3752 124.17 70.802 123.591 70.3904 122.843C69.9787 122.096 69.7729 121.216 69.7729 120.203C69.7729 119.221 69.9597 118.337 70.3334 117.552C70.7134 116.76 71.258 116.136 71.9674 115.68C72.6767 115.218 73.5349 114.987 74.5419 114.987C75.5425 114.987 76.3817 115.199 77.0594 115.623C77.737 116.041 78.25 116.627 78.5984 117.381C78.9467 118.128 79.1209 118.993 79.1209 119.974V120.725H72.5184C72.5184 121.225 72.6007 121.662 72.7654 122.036C72.93 122.403 73.1675 122.688 73.4779 122.891C73.7945 123.087 74.1745 123.185 74.6179 123.185C75.0929 123.185 75.5077 123.084 75.8624 122.881C76.217 122.679 76.4672 122.346 76.6129 121.884H79.1114C78.9974 122.581 78.7187 123.176 78.2754 123.67C77.832 124.164 77.2937 124.541 76.6604 124.8C76.027 125.06 75.3684 125.19 74.6844 125.19ZM72.5184 119.072H76.5274C76.5274 118.679 76.4514 118.318 76.2994 117.989C76.1537 117.66 75.932 117.4 75.6344 117.21C75.343 117.02 74.9757 116.925 74.5324 116.925C74.108 116.925 73.7439 117.029 73.4399 117.238C73.1422 117.441 72.911 117.707 72.7464 118.036C72.588 118.366 72.512 118.711 72.5184 119.072ZM85.4036 125.19C84.441 125.19 83.6018 124.984 82.8861 124.572C82.1768 124.161 81.6258 123.578 81.2331 122.824C80.8468 122.071 80.6536 121.178 80.6536 120.145C80.6536 119.113 80.8468 118.211 81.2331 117.438C81.6258 116.665 82.1768 116.064 82.8861 115.633C83.6018 115.202 84.4441 114.987 85.4131 114.987C86.3821 114.987 87.2213 115.199 87.9306 115.623C88.64 116.041 89.1878 116.637 89.5741 117.409C89.9605 118.182 90.1536 119.094 90.1536 120.145C90.1536 121.133 89.9636 122.007 89.5836 122.767C89.21 123.521 88.6685 124.113 87.9591 124.544C87.2561 124.975 86.4043 125.19 85.4036 125.19ZM85.4131 123.128C85.9008 123.128 86.2935 122.986 86.5911 122.701C86.8888 122.416 87.1041 122.042 87.2371 121.58C87.3701 121.111 87.4366 120.601 87.4366 120.05C87.4366 119.531 87.3765 119.04 87.2561 118.578C87.1358 118.116 86.9268 117.742 86.6291 117.457C86.3315 117.172 85.9261 117.029 85.4131 117.029C84.9255 117.029 84.5296 117.166 84.2256 117.438C83.928 117.704 83.7095 118.068 83.5701 118.53C83.4308 118.986 83.3611 119.493 83.3611 120.05C83.3611 120.563 83.4245 121.057 83.5511 121.532C83.6778 122.001 83.89 122.384 84.1876 122.682C84.4853 122.98 84.8938 123.128 85.4131 123.128ZM95.9813 125.19C95.2973 125.19 94.6386 125.079 94.0053 124.857C93.3783 124.629 92.8431 124.275 92.3998 123.793C91.9628 123.306 91.6873 122.676 91.5733 121.903H93.9673C94.056 122.251 94.208 122.527 94.4233 122.729C94.645 122.932 94.8951 123.078 95.1738 123.166C95.4525 123.249 95.7185 123.29 95.9718 123.29C96.5038 123.29 96.9313 123.208 97.2543 123.043C97.5836 122.872 97.7483 122.612 97.7483 122.264C97.7483 121.998 97.6501 121.786 97.4538 121.627C97.2638 121.469 96.9471 121.349 96.5038 121.266L94.7748 120.905C93.9071 120.722 93.2073 120.411 92.6753 119.974C92.1496 119.531 91.8836 118.904 91.8773 118.093C91.871 117.504 92.023 116.976 92.3333 116.507C92.65 116.038 93.1155 115.668 93.7298 115.395C94.3505 115.123 95.1073 114.987 96.0003 114.987C97.21 114.987 98.1758 115.253 98.8978 115.785C99.6261 116.317 99.9966 117.067 100.009 118.036H97.6913C97.6216 117.656 97.4316 117.365 97.1213 117.162C96.8173 116.953 96.431 116.849 95.9623 116.849C95.4873 116.849 95.0946 116.934 94.7843 117.105C94.474 117.276 94.3188 117.536 94.3188 117.884C94.3188 118.144 94.4455 118.35 94.6988 118.502C94.9521 118.648 95.3448 118.774 95.8768 118.882L97.4728 119.243C98.0238 119.376 98.4703 119.56 98.8123 119.794C99.1606 120.022 99.4298 120.272 99.6198 120.544C99.8098 120.817 99.9396 121.092 100.009 121.371C100.085 121.643 100.123 121.89 100.123 122.112C100.123 122.764 99.9491 123.322 99.6008 123.784C99.2525 124.24 98.768 124.588 98.1473 124.829C97.5266 125.07 96.8046 125.19 95.9813 125.19Z" fill="#1C2922"/>
<path opacity="0.4" d="M107.333 46.0332V73.9665C107.333 86.0998 100.1 93.3332 87.9668 93.3332H60.0334C47.9001 93.3332 40.6667 86.0998 40.6667 73.9665V46.0332C40.6667 44.3332 40.8001 42.6998 41.1001 41.1998C42.8001 32.0332 49.5667 26.6998 59.9001 26.6665H88.1001C98.4334 26.6998 105.2 32.0332 106.9 41.1998C107.2 42.6998 107.333 44.3332 107.333 46.0332Z" fill="#292D32"/>
<path d="M107.333 46.0332V46.1998H40.6667V46.0332C40.6667 44.3332 40.8001 42.6998 41.1001 41.1998H59.9001V26.6665H64.9001V41.1998H83.1001V26.6665H88.1001V41.1998H106.9C107.2 42.6998 107.333 44.3332 107.333 46.0332Z" fill="#292D32"/>
<path d="M82.1334 62.4001L75.2001 58.4001C72.6334 56.9334 70.1667 56.7334 68.2334 57.8334C66.3001 58.9334 65.2334 61.2001 65.2334 64.1334V72.1334C65.2334 75.0668 66.3001 77.3334 68.2334 78.4334C69.0667 78.9001 70.0001 79.1334 70.9667 79.1334C72.3001 79.1334 73.7334 78.7001 75.2001 77.8668L82.1334 73.8668C84.7001 72.4001 86.1001 70.3334 86.1001 68.1001C86.1001 65.8668 84.6667 63.9001 82.1334 62.4001Z" fill="#292D32"/>
</svg>
