<svg width="75" height="75" viewBox="0 0 75 75" fill="none" xmlns="http://www.w3.org/2000/svg">
<path d="M68.75 46.875V28.125C68.75 12.5 62.5 6.25 46.875 6.25H28.125C12.5 6.25 6.25 12.5 6.25 28.125V46.875C6.25 62.5 12.5 68.75 28.125 68.75H46.875C62.5 68.75 68.75 62.5 68.75 46.875Z" stroke="#292D32" stroke-width="1.5" stroke-linecap="round" stroke-linejoin="round"/>
<path d="M7.875 22.2188H67.125" stroke="#292D32" stroke-width="1.5" stroke-linecap="round" stroke-linejoin="round"/>
<path d="M26.625 6.59375V21.7812" stroke="#292D32" stroke-width="1.5" stroke-linecap="round" stroke-linejoin="round"/>
<path d="M48.375 6.59375V20.375" stroke="#292D32" stroke-width="1.5" stroke-linecap="round" stroke-linejoin="round"/>
<path d="M30.4688 45.1564V41.4064C30.4688 36.5939 33.875 34.6251 38.0313 37.0314L41.2813 38.9064L44.5312 40.7814C48.6875 43.1876 48.6875 47.1251 44.5312 49.5314L41.2813 51.4064L38.0313 53.2814C33.875 55.6876 30.4688 53.7189 30.4688 48.9064V45.1564V45.1564Z" stroke="#292D32" stroke-width="1.5" stroke-miterlimit="10" stroke-linecap="round" stroke-linejoin="round"/>
</svg>
